<svg id="agronomy" xmlns="http://www.w3.org/2000/svg" width="67.106" height="66.823" viewBox="0 0 67.106 66.823">
  <g id="Group_29" data-name="Group 29" transform="translate(18.953 8.472)">
    <g id="Group_28" data-name="Group 28">
      <path id="Path_442" data-name="Path 442" d="M173.313,90.67a1.308,1.308,0,0,0-.808-.859,9.351,9.351,0,0,0-1.729-.4,11.053,11.053,0,0,0,2.537-10.885,1.307,1.307,0,0,0-.808-.859,11.325,11.325,0,0,0-7.048.073,11.678,11.678,0,0,0,.327-2.788,11.085,11.085,0,0,0-5.943-9.877,1.315,1.315,0,0,0-1.181-.039,11.047,11.047,0,0,0-6.02,9.915,11.676,11.676,0,0,0,.328,2.793,11.324,11.324,0,0,0-7.064-.079,1.307,1.307,0,0,0-.808.859,11.053,11.053,0,0,0,2.537,10.885,9.35,9.35,0,0,0-1.729.4,1.308,1.308,0,0,0-.808.859,11.051,11.051,0,0,0,2.811,11.168,10.9,10.9,0,0,0,7.867,3.3,11.771,11.771,0,0,0,2.11-.191v8.54a1.311,1.311,0,0,0,2.621,0v-8.543a11.79,11.79,0,0,0,2.128.194,10.9,10.9,0,0,0,7.867-3.3A11.051,11.051,0,0,0,173.313,90.67Zm-15.428,10.208a8.665,8.665,0,0,1-.192,1.448,8.485,8.485,0,0,1-7.93-2.333,8.39,8.39,0,0,1-2.337-7.9,8.824,8.824,0,0,1,4.5.212q.188.07.374.132a8.6,8.6,0,0,1,3.046,1.989,8.3,8.3,0,0,1,2.536,5.577Zm0-12.147a8.661,8.661,0,0,1-.192,1.448A8.745,8.745,0,0,1,153.281,90q-.284-.109-.565-.2a8.658,8.658,0,0,1-2.953-1.959,8.391,8.391,0,0,1-2.337-7.9,8.526,8.526,0,0,1,7.923,2.333l.055.057q.172.193.345.369a8.246,8.246,0,0,1,2.135,5.151Zm1.329-6.548a8.9,8.9,0,0,1-1.6-1.32c-.061-.067-.123-.134-.187-.2a8.306,8.306,0,0,1-2.162-5.712,8.419,8.419,0,0,1,3.944-7.23,8.41,8.41,0,0,1,3.957,7.23,8.3,8.3,0,0,1-1.961,5.493c-.212.212-.411.425-.6.64A8.8,8.8,0,0,1,159.215,82.182Zm1.3,6.125a8.241,8.241,0,0,1,2.026-5.464c.193-.191.387-.4.58-.618a8.484,8.484,0,0,1,7.864-2.279,8.391,8.391,0,0,1-2.336,7.9A8.659,8.659,0,0,1,165.7,89.8q-.285.091-.574.2a8.742,8.742,0,0,1-4.408.174,8.725,8.725,0,0,1-.2-1.838C160.515,88.33,160.515,88.319,160.515,88.308Zm8.133,11.685a8.485,8.485,0,0,1-7.928,2.334,8.44,8.44,0,0,1,2.341-7.9,8.657,8.657,0,0,1,2.956-1.96q.28-.09.563-.2a8.748,8.748,0,0,1,4.4-.177A8.391,8.391,0,0,1,168.648,99.993Z" transform="translate(-144.606 -64.913)" fill="#169cfd"/>
    </g>
  </g>
  <g id="Group_31" data-name="Group 31" transform="translate(0)">
    <g id="Group_30" data-name="Group 30">
      <path id="Path_443" data-name="Path 443" d="M40.546.727A33.917,33.917,0,0,0,33.553,0,33.383,33.383,0,0,0,7.09,53.952a4.974,4.974,0,0,0,7.71,6.191,4.96,4.96,0,0,0-3.522-8.467,4.975,4.975,0,0,0-2.233.525A30.774,30.774,0,0,1,33.553,2.61,31.273,31.273,0,0,1,40,3.281,1.305,1.305,0,1,0,40.546.727ZM9.61,54.975a2.369,2.369,0,0,1,3.336,0,2.342,2.342,0,0,1,0,3.322,2.369,2.369,0,0,1-3.336,0,2.342,2.342,0,0,1,0-3.322Z" transform="translate(0)"/>
    </g>
  </g>
  <g id="Group_33" data-name="Group 33" transform="translate(26.548 5.227)">
    <g id="Group_32" data-name="Group 32">
      <path id="Path_444" data-name="Path 444" d="M236.024,47.695a4.994,4.994,0,1,0-4.188,2.275,4.975,4.975,0,0,0,2.233-.525,30.774,30.774,0,0,1-24.508,49.592,31.355,31.355,0,0,1-5.464-.479,1.305,1.305,0,1,0-.46,2.57,34.006,34.006,0,0,0,5.924.519,33.383,33.383,0,0,0,26.463-53.952Zm-2.52-1.023a2.342,2.342,0,1,1,.691-1.661A2.348,2.348,0,0,1,233.5,46.672Z" transform="translate(-202.556 -40.051)"/>
    </g>
  </g>
  <g id="Group_35" data-name="Group 35" transform="translate(20.231 61.91)">
    <g id="Group_34" data-name="Group 34">
      <path id="Path_445" data-name="Path 445" d="M156.161,474.457l-.495,1.209.491-1.21a1.306,1.306,0,1,0-.982,2.42l.04.016a1.317,1.317,0,0,0,1.7-.75A1.3,1.3,0,0,0,156.161,474.457Z" transform="translate(-154.355 -474.36)"/>
    </g>
  </g>
  <g id="Group_37" data-name="Group 37" transform="translate(44.291 2.317)">
    <g id="Group_36" data-name="Group 36">
      <path id="Path_446" data-name="Path 446" d="M339.75,17.857l-.023-.009a1.306,1.306,0,1,0-.974,2.424l.015.006a1.306,1.306,0,1,0,.982-2.42Z" transform="translate(-337.929 -17.754)"/>
    </g>
  </g>
</svg>
