<svg xmlns="http://www.w3.org/2000/svg" width="57.966" height="66.746" viewBox="0 0 57.966 66.746">
  <g id="bar-chart" transform="translate(-13.601)">
    <g id="Group_39" data-name="Group 39" transform="translate(13.601 19.118)">
      <g id="Group_38" data-name="Group 38" transform="translate(0)">
        <path id="Path_453" data-name="Path 453" d="M70.372,191.675H67.749V150.158a3.373,3.373,0,0,0-3.214-3.5H58.673a3.373,3.373,0,0,0-3.214,3.5v41.516H48.8V168.968a3.373,3.373,0,0,0-3.214-3.5H39.724a3.373,3.373,0,0,0-3.214,3.5v22.706H29.851V179.915a3.373,3.373,0,0,0-3.214-3.5H20.775a3.373,3.373,0,0,0-3.214,3.5v11.759H14.8a1.309,1.309,0,0,0,0,2.607H70.372a1.309,1.309,0,0,0,0-2.607Zm-42.913,0H19.952V179.915a.863.863,0,0,1,.823-.9h5.862a.863.863,0,0,1,.823.9Zm18.949,0H38.9V168.968a.863.863,0,0,1,.823-.9h5.862a.863.863,0,0,1,.823.9Zm18.949,0H57.851V150.158a.863.863,0,0,1,.823-.9h5.862a.863.863,0,0,1,.823.9Z" transform="translate(-13.601 -146.654)"/>
      </g>
    </g>
    <g id="Group_41" data-name="Group 41" transform="translate(23.853)">
      <g id="Group_40" data-name="Group 40">
        <path id="Path_454" data-name="Path 454" d="M143.239,1.371a1.366,1.366,0,0,0-.347-.989A1.138,1.138,0,0,0,141.985,0c-.019,0-.038,0-.058,0h-7.234a1.253,1.253,0,0,0-1.2,1.3,1.253,1.253,0,0,0,1.2,1.3h4.467L127.34,15.495l-4.458-4.86a1.127,1.127,0,0,0-1.691,0L99.7,34.07a1.389,1.389,0,0,0,0,1.844,1.127,1.127,0,0,0,1.691,0L122.037,13.4l4.458,4.86a1.127,1.127,0,0,0,1.691,0L140.851,4.451V8.859a1.2,1.2,0,1,0,2.391,0V1.434C143.242,1.413,143.24,1.392,143.239,1.371Z" transform="translate(-99.346)" fill="#169cfd"/>
      </g>
    </g>
    <g id="Group_43" data-name="Group 43" transform="translate(19.823 38.237)">
      <g id="Group_42" data-name="Group 42" transform="translate(0)">
        <ellipse id="Ellipse_45" data-name="Ellipse 45" cx="1.196" cy="1.304" rx="1.196" ry="1.304"/>
      </g>
    </g>
  </g>
</svg>
