<svg xmlns="http://www.w3.org/2000/svg" width="63.858" height="67.097" viewBox="0 0 63.858 67.097">
  <g id="customer-support" transform="translate(-0.273 0)">
    <path id="Path_458" data-name="Path 458" d="M.45,6.22l4.256,7.824a1.071,1.071,0,0,0,.665.53l3.97,1.043L22.958,29.924l1.5-1.58L10.632,13.813a1.049,1.049,0,0,0-.494-.294L6.324,12.513,2.7,5.848,5.807,2.584l6.347,3.811.958,4.008a1.13,1.13,0,0,0,.28.52l13.83,14.531,1.5-1.581L15.108,9.565,14.116,5.4a1.115,1.115,0,0,0-.5-.7L6.164.225a1.026,1.026,0,0,0-1.277.18L.632,4.876A1.16,1.16,0,0,0,.45,6.22Zm0,0" transform="translate(-0.036 -0.07)"/>
    <path id="Path_459" data-name="Path 459" d="M198.89,175.3l-23.4,24.591-1.5-1.581,23.405-24.591Zm0,0" transform="translate(-154.246 -153.269)" fill="#169cfd"/>
    <path id="Path_460" data-name="Path 460" d="M59.3,399.378a1.054,1.054,0,0,0-.912-.542H52.008a1.053,1.053,0,0,0-.912.542L47.9,404.967a1.166,1.166,0,0,0,0,1.151l3.192,5.589a1.054,1.054,0,0,0,.912.542h6.383a1.055,1.055,0,0,0,.912-.542l3.191-5.589a1.166,1.166,0,0,0,0-1.151Zm-1.514,10.635H52.61l-2.553-4.471,2.553-4.471h5.179l2.553,4.471Zm0,0" transform="translate(-42.16 -351.887)"/>
    <path id="Path_461" data-name="Path 461" d="M51.338,26.829c7.026.025,12.742-5.94,12.766-13.322a14.014,14.014,0,0,0-.391-3.332,1.043,1.043,0,0,0-1.784-.521l-6.622,6.953-5.254-1.84L48.3,9.248l6.622-6.959a1.158,1.158,0,0,0,0-1.581,1.052,1.052,0,0,0-.5-.295C47.61-1.4,40.687,2.933,38.962,10.092a13.982,13.982,0,0,0-.389,3.323,13.761,13.761,0,0,0,.259,2.619l-23.3,24.479a11.969,11.969,0,0,0-2.492-.272C5.989,40.242.273,46.247.273,53.656S5.989,67.069,13.04,67.069s12.766-6.005,12.766-13.413a13.8,13.8,0,0,0-.259-2.619l5.578-5.86,2.439,2.563a1.028,1.028,0,0,0,1.5,0l.532-.559a1.157,1.157,0,0,1,1.687,0,1.3,1.3,0,0,1,0,1.771l0,0-.532.559a1.158,1.158,0,0,0,0,1.58L49.447,64.426a8.3,8.3,0,0,0,12.143.058,9.348,9.348,0,0,0,.055-12.758l-.055-.058L48.9,38.334a1.028,1.028,0,0,0-1.5,0l-.532.559a1.157,1.157,0,0,1-1.688,0,1.3,1.3,0,0,1,0-1.77l0,0,.532-.559a1.158,1.158,0,0,0,0-1.58l-2.439-2.563,5.578-5.86A11.937,11.937,0,0,0,51.338,26.829Zm4.18,38a6.189,6.189,0,0,1-2.263-.434l8.309-8.73A6.884,6.884,0,0,1,57.8,64.4,6.177,6.177,0,0,1,55.518,64.834ZM43.466,35.782a3.612,3.612,0,0,0,.412,4.915,3.2,3.2,0,0,0,4.269,0L60.085,53.249c.13.137.251.28.368.427l-9.1,9.557c-.14-.123-.277-.25-.407-.387L39,50.291a3.612,3.612,0,0,0-.412-4.915,3.2,3.2,0,0,0-4.269,0l-1.7-1.788L41.764,34Zm4.3-11.242L23.628,49.892a1.158,1.158,0,0,0-.281,1.062,11.307,11.307,0,0,1-7.736,13.681A10.68,10.68,0,0,1,2.59,56.507a11.308,11.308,0,0,1,7.737-13.681,10.215,10.215,0,0,1,5.285,0,1.039,1.039,0,0,0,1.011-.295L40.75,17.178a1.156,1.156,0,0,0,.28-1.062A11.181,11.181,0,0,1,48.662,2.582a10.1,10.1,0,0,1,3.281-.326l-5.612,5.9A1.157,1.157,0,0,0,46.074,9.3L48.2,16a1.093,1.093,0,0,0,.674.706l6.383,2.236a1.028,1.028,0,0,0,1.088-.269l5.612-5.9c.013.213.019.424.019.635a10.87,10.87,0,0,1-10.53,11.178,10.115,10.115,0,0,1-2.68-.348,1.03,1.03,0,0,0-1.011.294h.006Zm0,0" transform="translate(0 0)"/>
    <path id="Path_462" data-name="Path 462" d="M395.033,393.8l-1.5,1.581-10.638-11.177,1.5-1.581Zm0,0" transform="translate(-339.75 -337.584)" fill="#169cfd"/>
  </g>
</svg>
