<svg id="file" xmlns="http://www.w3.org/2000/svg" width="50.768" height="66.823" viewBox="0 0 50.768 66.823">
  <path id="Path_427" data-name="Path 427" d="M50.766,13.071c0-.014,0-.029,0-.043a1.137,1.137,0,0,0-.024-.167h0a1.231,1.231,0,0,0-.052-.163l-.016-.04a1.322,1.322,0,0,0-.075-.148l0-.008a1.269,1.269,0,0,0-.1-.144l-.029-.035a1.39,1.39,0,0,0-.131-.132L36.7.382a1.483,1.483,0,0,0-.152-.113L36.5.243a1.475,1.475,0,0,0-.165-.09L36.328.148a1.71,1.71,0,0,0-.168-.064L36.113.07a1.732,1.732,0,0,0-.187-.045h0A1.831,1.831,0,0,0,35.733,0l-.049,0-.051,0H1.506A1.416,1.416,0,0,0,0,1.305V57.168a1.416,1.416,0,0,0,1.506,1.305H24.183v7.045a1.29,1.29,0,0,0,.777,1.142,1.708,1.708,0,0,0,1.53-.036L32.227,63.5l5.737,3.119a1.711,1.711,0,0,0,1.53.037,1.29,1.29,0,0,0,.777-1.143V58.473h8.992a1.416,1.416,0,0,0,1.506-1.305V13.116C50.768,13.1,50.766,13.086,50.766,13.071ZM37.139,4.456l8.487,7.354H37.139ZM23.44,40.312a3.614,3.614,0,0,1-.282-.823A4.5,4.5,0,0,1,23.934,39a5.366,5.366,0,0,0,1.586-1.148,4.376,4.376,0,0,0,.787-1.671,3.832,3.832,0,0,1,.279-.757,2.167,2.167,0,0,1,.373-.023c.168,0,.355.008.554.017.228.01.464.02.71.02a4.883,4.883,0,0,0,1.377-.168,5.882,5.882,0,0,0,1.738-.928,3.94,3.94,0,0,1,.881-.524,3.683,3.683,0,0,1,.9.524,5.885,5.885,0,0,0,1.739.928,4.881,4.881,0,0,0,1.377.168c.245,0,.481-.01.709-.02.2-.009.387-.017.555-.017a2.117,2.117,0,0,1,.373.023,3.8,3.8,0,0,1,.279.757,4.377,4.377,0,0,0,.787,1.671A5.36,5.36,0,0,0,40.521,39a4.549,4.549,0,0,1,.775.487,3.638,3.638,0,0,1-.282.823,4.6,4.6,0,0,0-.478,1.793,4.619,4.619,0,0,0,.477,1.793,3.614,3.614,0,0,1,.282.823,4.55,4.55,0,0,1-.775.487,5.351,5.351,0,0,0-1.586,1.148,4.377,4.377,0,0,0-.787,1.671,3.845,3.845,0,0,1-.279.757,2.172,2.172,0,0,1-.373.023c-.168,0-.356-.008-.555-.017-.228-.01-.464-.02-.709-.02a4.88,4.88,0,0,0-1.377.168,5.9,5.9,0,0,0-1.739.928,3.836,3.836,0,0,1-.888.524,3.834,3.834,0,0,1-.888-.524,5.9,5.9,0,0,0-1.739-.928,4.883,4.883,0,0,0-1.377-.168c-.245,0-.481.01-.71.02-.2.009-.386.017-.554.017a2.172,2.172,0,0,1-.373-.023,3.832,3.832,0,0,1-.279-.757,4.367,4.367,0,0,0-.787-1.671,5.351,5.351,0,0,0-1.586-1.148,4.518,4.518,0,0,1-.775-.487,3.647,3.647,0,0,1,.282-.823,4.6,4.6,0,0,0,.478-1.793A4.614,4.614,0,0,0,23.44,40.312ZM37.258,63.158l-4.23-2.3a1.709,1.709,0,0,0-1.6,0l-4.23,2.3V51.413c.16,0,.317-.009.47-.016.2-.009.388-.017.558-.017a1.7,1.7,0,0,1,.425.034,4.123,4.123,0,0,1,.8.486A4.755,4.755,0,0,0,32.227,53,4.755,4.755,0,0,0,35,51.9a4.107,4.107,0,0,1,.8-.485,1.705,1.705,0,0,1,.426-.034c.17,0,.358.008.558.017.152.007.309.012.469.016V63.158Zm3.012-7.3v-5.5a4.418,4.418,0,0,0,.793-1.681c.083-.278.3-.781.3-.781s.486-.332.765-.485a3.973,3.973,0,0,0,2.03-1.866A3.319,3.319,0,0,0,43.842,43a3.169,3.169,0,0,1-.294-.894,3.167,3.167,0,0,1,.294-.894,3.32,3.32,0,0,0,.318-2.55,3.974,3.974,0,0,0-2.03-1.866,3.979,3.979,0,0,1-.765-.484,3.076,3.076,0,0,1-.3-.782,3.535,3.535,0,0,0-1.409-2.217,4,4,0,0,0-2.16-.52c-.244,0-.479.01-.706.02-.2.009-.388.017-.557.017a1.7,1.7,0,0,1-.426-.034,4.088,4.088,0,0,1-.8-.486,4.762,4.762,0,0,0-2.778-1.1,4.76,4.76,0,0,0-2.777,1.1,4.113,4.113,0,0,1-.8.486,1.7,1.7,0,0,1-.426.034c-.169,0-.358-.008-.558-.017-.227-.01-.462-.02-.706-.02a4,4,0,0,0-2.159.52,3.535,3.535,0,0,0-1.41,2.217,3.088,3.088,0,0,1-.3.781,3.978,3.978,0,0,1-.766.485,3.976,3.976,0,0,0-2.03,1.866,3.32,3.32,0,0,0,.318,2.55,3.167,3.167,0,0,1,.294.894,3.169,3.169,0,0,1-.294.894,3.32,3.32,0,0,0-.318,2.55,3.978,3.978,0,0,0,2.03,1.866,3.96,3.96,0,0,1,.766.485,3.088,3.088,0,0,1,.3.781,4.416,4.416,0,0,0,.794,1.681v5.5H3.012V2.61H34.126V13.116a1.416,1.416,0,0,0,1.506,1.305H47.756V55.863Zm0,0" fill-rule="evenodd"/>
  <path id="Path_428" data-name="Path 428" d="M50.37,93.1H69.775a1.319,1.319,0,1,0,0-2.61H50.37a1.319,1.319,0,1,0,0,2.61Zm0,0" transform="translate(-41.503 -78.682)" fill="#169cfd" fill-rule="evenodd"/>
  <path id="Path_429" data-name="Path 429" d="M83.574,140.969H50.37a1.319,1.319,0,1,0,0,2.61h33.2a1.319,1.319,0,1,0,0-2.61Zm0,0" transform="translate(-41.503 -122.57)" fill="#169cfd" fill-rule="evenodd"/>
  <path id="Path_430" data-name="Path 430" d="M77.549,191.445H50.37a1.319,1.319,0,1,0,0,2.61H77.549a1.319,1.319,0,1,0,0-2.61Zm0,0" transform="translate(-41.503 -166.459)" fill="#169cfd" fill-rule="evenodd"/>
  <path id="Path_431" data-name="Path 431" d="M270.815,191.445a1.319,1.319,0,1,0,1.506,1.305A1.419,1.419,0,0,0,270.815,191.445Zm0,0" transform="translate(-228.744 -166.459)" fill-rule="evenodd"/>
</svg>
