<?xml version="1.0" encoding="utf-8"?>
<!-- Generator: Adobe Illustrator 23.0.1, SVG Export Plug-In . SVG Version: 6.00 Build 0)  -->
<svg version="1.1" id="Layer_1" xmlns="http://www.w3.org/2000/svg" xmlns:xlink="http://www.w3.org/1999/xlink" x="0px" y="0px"
	 viewBox="0 0 188 80" style="enable-background:new 0 0 188 80;" xml:space="preserve">
<style type="text/css">
	.st0{fill:#169CFD;}
	.st1{fill:#56BDFC;}
	.st2{fill:#FFFFFF;}
</style>
<path class="st0" d="M46.37,74.99c-8.3,0-16.6,0-24.91,0c-3.16,0-5.42-1.54-6.56-4.48c-0.39-1-0.6-2.04-0.6-3.12
	c0-16.08-0.01-32.16,0.01-48.24c0-2.52,0.95-4.67,2.94-6.28c1.05-0.85,2.27-1.27,3.63-1.27c8.32,0,16.64,0,24.96,0
	c0.57,0,0.57,0,0.57,0.58c0,9.89,0,19.78,0,29.67c0,0.99-0.14,0.86,0.86,0.86c9.93,0,19.86,0,29.79,0c0.11,0,0.22,0,0.34,0
	c0.61,0,0.62,0,0.62,0.61c0,8.45,0,16.9,0,25.35c0,0.88-0.2,1.7-0.61,2.48c-0.65,1.24-1.58,2.22-2.76,2.96
	C73.71,74.71,72.71,75,71.61,75C63.2,74.99,54.78,74.99,46.37,74.99z"/>
<path class="st1" d="M53.48,20.07c0-5.09,0-10.17,0-15.26c0-0.09,0-0.19,0-0.28c0.01-0.55,0.01-0.55,0.56-0.55
	c7.83,0,15.67,0,23.5,0c1.93,0,3.69,0.52,5.21,1.73c1.49,1.18,2.32,2.75,2.69,4.59c0.14,0.72,0.19,1.45,0.19,2.17
	c0.01,7.67,0,15.33,0,23c0,0.06,0,0.11,0,0.17c-0.01,0.55-0.01,0.56-0.57,0.56c-10.34,0-20.68,0-31.02,0c-0.57,0-0.57,0-0.57-0.59
	C53.48,30.43,53.48,25.25,53.48,20.07z"/>
<g>
	<g>
		<path class="st2" d="M109.43,25.96h-3.56l-1.43-4.49h-6.51l-1.35,4.49h-3.49l6.34-19.84h3.48L109.43,25.96z M103.39,18.11
			l-2.25-7.36l-2.2,7.36H103.39z"/>
		<path class="st2" d="M116.53,11.59v3.03h-2.12v5.8c0,1.26,0.03,1.98,0.09,2.18c0.13,0.36,0.38,0.54,0.77,0.54
			c0.29,0,0.7-0.12,1.25-0.37l0.27,2.95c-0.72,0.38-1.54,0.57-2.45,0.57c-0.79,0-1.43-0.19-1.91-0.57c-0.48-0.38-0.8-0.93-0.96-1.64
			c-0.13-0.52-0.19-1.59-0.19-3.2v-6.27h-1.43v-3.03h1.43V8.73l3.13-2.22v5.08H116.53z"/>
		<path class="st2" d="M99.02,49.96v-8.35l-5.96-11.49h3.84l3.82,7.85l3.77-7.85h3.78l-5.98,11.52v8.33H99.02z"/>
		<path class="st2" d="M107.5,42.57c0-1.41,0.28-2.69,0.84-3.85c0.56-1.16,1.29-2.03,2.19-2.6c0.9-0.58,1.92-0.87,3.05-0.87
			c1.89,0,3.38,0.74,4.47,2.23c1.08,1.49,1.62,3.23,1.62,5.21c0,1.48-0.28,2.82-0.85,4.01c-0.56,1.19-1.3,2.09-2.22,2.69
			c-0.92,0.6-1.92,0.9-3.01,0.9c-1.75,0-3.2-0.67-4.36-2.01S107.5,45.05,107.5,42.57z M110.69,42.77c0,1.46,0.29,2.56,0.85,3.31
			c0.57,0.75,1.26,1.12,2.06,1.12c0.79,0,1.46-0.38,2.02-1.13c0.56-0.75,0.84-1.86,0.84-3.33c0-1.43-0.29-2.52-0.85-3.27
			c-0.57-0.75-1.25-1.13-2.05-1.13c-0.79,0-1.46,0.38-2.03,1.13S110.69,41.33,110.69,42.77z"/>
		<path class="st2" d="M129.85,49.96v-2.15c-0.43,0.78-1,1.39-1.7,1.83c-0.7,0.44-1.44,0.66-2.2,0.66c-0.77,0-1.47-0.2-2.08-0.61
			s-1.07-0.98-1.37-1.73c-0.3-0.75-0.45-1.84-0.45-3.26v-9.11h3.13v6.61c0,1.89,0.05,3.08,0.14,3.59s0.3,0.9,0.63,1.18
			c0.32,0.28,0.71,0.42,1.17,0.42c0.52,0,1-0.18,1.44-0.55c0.44-0.37,0.73-0.83,0.87-1.41c0.14-0.57,0.21-1.83,0.21-3.78v-6.06h3.13
			v14.38H129.85z"/>
		<path class="st2" d="M139,49.96h-3.13V35.59h2.9v2.04c0.5-0.96,0.94-1.59,1.33-1.91s0.85-0.47,1.36-0.47
			c0.71,0,1.39,0.24,2.04,0.72l-0.97,3.32c-0.51-0.42-1-0.62-1.46-0.62c-0.43,0-0.82,0.16-1.14,0.48c-0.33,0.32-0.57,0.9-0.71,1.74
			c-0.14,0.84-0.22,2.38-0.22,4.63V49.96z"/>
		<path class="st2" d="M93.92,67.49l3.21-0.38c0.36,2.54,1.54,3.8,3.55,3.8c0.99,0,1.77-0.26,2.34-0.78
			c0.57-0.52,0.85-1.16,0.85-1.93c0-0.45-0.1-0.83-0.3-1.15c-0.2-0.32-0.5-0.57-0.91-0.78s-1.39-0.54-2.95-1.02
			c-1.4-0.42-2.42-0.88-3.07-1.38c-0.65-0.5-1.17-1.15-1.55-1.95c-0.38-0.81-0.58-1.67-0.58-2.6c0-1.08,0.25-2.06,0.74-2.92
			c0.49-0.87,1.17-1.52,2.04-1.96c0.87-0.44,1.94-0.66,3.21-0.66c1.91,0,3.41,0.52,4.48,1.56c1.07,1.04,1.64,2.52,1.71,4.45
			l-3.29,0.18c-0.14-1.06-0.46-1.81-0.93-2.23s-1.16-0.64-2.04-0.64s-1.56,0.18-2.04,0.55s-0.72,0.83-0.72,1.38
			c0,0.54,0.22,0.99,0.65,1.36c0.43,0.37,1.43,0.77,2.99,1.22c1.65,0.48,2.84,0.98,3.58,1.51c0.73,0.53,1.29,1.21,1.68,2.04
			s0.58,1.85,0.58,3.04c0,1.72-0.53,3.17-1.59,4.34c-1.06,1.17-2.72,1.76-4.97,1.76C96.59,74.3,94.37,72.03,93.92,67.49z"/>
		<path class="st2" d="M116.74,69.4l3.1,0.64c-0.42,1.44-1.06,2.52-1.94,3.21c-0.88,0.7-1.94,1.05-3.2,1.05
			c-1.74,0-3.09-0.58-4.04-1.75c-1.12-1.36-1.68-3.25-1.68-5.7c0-2.41,0.56-4.33,1.69-5.78c0.96-1.22,2.19-1.83,3.71-1.83
			c1.69,0,3.01,0.62,3.97,1.87c1.1,1.43,1.65,3.53,1.65,6.32l-0.01,0.43h-7.81c0.02,1.14,0.27,2.03,0.77,2.65s1.09,0.94,1.79,0.94
			C115.74,71.46,116.41,70.77,116.74,69.4z M116.91,65.54c-0.03-1.12-0.27-1.97-0.72-2.54c-0.45-0.57-0.99-0.85-1.61-0.85
			c-0.66,0-1.21,0.29-1.67,0.88c-0.46,0.6-0.69,1.43-0.68,2.5H116.91z"/>
		<path class="st2" d="M125.53,73.96h-3.13V59.59h2.9v2.04c0.5-0.96,0.94-1.59,1.33-1.91c0.39-0.32,0.85-0.47,1.36-0.47
			c0.71,0,1.39,0.24,2.04,0.72l-0.97,3.32c-0.51-0.42-1-0.62-1.46-0.62c-0.43,0-0.82,0.16-1.14,0.48c-0.33,0.32-0.57,0.9-0.71,1.74
			c-0.14,0.84-0.22,2.38-0.22,4.63V73.96z"/>
		<path class="st2" d="M134.64,73.96l-4.78-14.38h3.26l2.23,7.34l0.65,2.45l0.66-2.45l2.26-7.34h3.2l-4.7,14.38H134.64z"/>
		<path class="st2" d="M144.02,57.64v-3.52h3.13v3.52H144.02z M144.02,73.96V59.59h3.13v14.38H144.02z"/>
		<path class="st2" d="M160.63,63.82l-3.07,0.68c-0.23-1.51-0.94-2.26-2.14-2.26c-0.77,0-1.39,0.33-1.87,0.98
			c-0.47,0.65-0.71,1.75-0.71,3.3c0,1.71,0.24,2.92,0.71,3.63c0.47,0.71,1.1,1.06,1.89,1.06c0.59,0,1.07-0.2,1.45-0.6
			c0.38-0.4,0.65-1.11,0.81-2.13l3.07,0.64c-0.63,3.46-2.45,5.2-5.46,5.2c-1.92,0-3.35-0.73-4.28-2.2s-1.39-3.23-1.39-5.29
			c0-2.47,0.53-4.35,1.58-5.63c1.05-1.29,2.43-1.93,4.14-1.93c1.38,0,2.51,0.37,3.38,1.1C159.62,61.08,160.25,62.24,160.63,63.82z"
			/>
		<path class="st2" d="M169.83,69.4l3.1,0.64c-0.42,1.44-1.06,2.52-1.94,3.21c-0.88,0.7-1.94,1.05-3.2,1.05
			c-1.74,0-3.09-0.58-4.04-1.75c-1.12-1.36-1.68-3.25-1.68-5.7c0-2.41,0.56-4.33,1.69-5.78c0.96-1.22,2.19-1.83,3.71-1.83
			c1.69,0,3.01,0.62,3.97,1.87c1.1,1.43,1.65,3.53,1.65,6.32l-0.01,0.43h-7.81c0.02,1.14,0.27,2.03,0.77,2.65s1.09,0.94,1.79,0.94
			C168.83,71.46,169.5,70.77,169.83,69.4z M170,65.54c-0.03-1.12-0.27-1.97-0.72-2.54c-0.45-0.57-0.99-0.85-1.61-0.85
			c-0.66,0-1.21,0.29-1.67,0.88c-0.46,0.6-0.69,1.43-0.68,2.5H170z"/>
	</g>
</g>
</svg>
