<svg id="support" xmlns="http://www.w3.org/2000/svg" width="73.657" height="73.657" viewBox="0 0 73.657 73.657">
  <g id="Group_45" data-name="Group 45" transform="translate(28.235 23.325)">
    <g id="Group_44" data-name="Group 44">
      <path id="Path_463" data-name="Path 463" d="M187.683,152A3.687,3.687,0,0,0,184,155.683h2.455a1.228,1.228,0,0,1,2.455,0h2.455A3.687,3.687,0,0,0,187.683,152Z" transform="translate(-184 -152)" fill="#169cfd"/>
    </g>
  </g>
  <g id="Group_47" data-name="Group 47" transform="translate(38.056 23.325)">
    <g id="Group_46" data-name="Group 46">
      <path id="Path_464" data-name="Path 464" d="M251.683,152A3.687,3.687,0,0,0,248,155.683h2.455a1.228,1.228,0,1,1,2.455,0h2.455A3.687,3.687,0,0,0,251.683,152Z" transform="translate(-248 -152)" fill="#169cfd"/>
    </g>
  </g>
  <g id="Group_49" data-name="Group 49" transform="translate(31.918 56.471)">
    <g id="Group_48" data-name="Group 48">
      <path id="Path_465" data-name="Path 465" d="M212.91,368a4.91,4.91,0,1,0,4.91,4.91A4.915,4.915,0,0,0,212.91,368Zm0,7.366a2.455,2.455,0,1,1,2.455-2.455A2.458,2.458,0,0,1,212.91,375.366Z" transform="translate(-208 -368)" fill="#169cfd"/>
    </g>
  </g>
  <g id="Group_51" data-name="Group 51">
    <g id="Group_50" data-name="Group 50">
      <path id="Path_466" data-name="Path 466" d="M66.292,71.2V55.243A18.435,18.435,0,0,0,47.877,36.829H46.54A14.781,14.781,0,0,0,47.778,35.6H49.1a6.145,6.145,0,0,0,6.138-6.138V27.3a5.515,5.515,0,0,0-.015-9.186,18.4,18.4,0,0,0-36.8,0,5.521,5.521,0,0,0,3.054,10.122h.836a14.706,14.706,0,0,0,4.8,8.593H25.78A18.435,18.435,0,0,0,7.366,55.243V71.2H0v2.455H73.657V71.2Zm-13.5-41.739A3.676,3.676,0,0,1,49.6,33.1a14.6,14.6,0,0,0,1.741-4.86h.836a5.329,5.329,0,0,0,.614-.063Zm2.455-6.752a3.073,3.073,0,0,1-3.069,3.069H51.56V19.642h.614A3.073,3.073,0,0,1,55.243,22.711ZM22.1,25.78h-.614a3.069,3.069,0,1,1,0-6.138H22.1Zm-.614-8.593a5.178,5.178,0,0,0-.555.056,15.942,15.942,0,0,1,31.8,0,5.179,5.179,0,0,0-.555-.056h-.836a14.712,14.712,0,0,0-29.018,0ZM49.1,19.611c-8.86-.312-14.73-3.935-14.73-7.335a1.228,1.228,0,0,0-2.455,0c0,3.068-3.172,5.61-7.295,6.061A12.275,12.275,0,0,1,49.1,19.611ZM24.552,25.78V20.8a11.344,11.344,0,0,0,8.711-4.771c2.568,3.4,8.57,5.8,15.841,6.042V25.78a12.2,12.2,0,0,1-2.479,7.366h-9.8V35.6h7.334a12.268,12.268,0,0,1-19.61-9.821ZM33.034,40a14.287,14.287,0,0,0,7.589,0l-3.795,7.589ZM34.842,49.1H32.677l-4.91-9.821h2.166Zm8.883-9.821h2.166L40.98,49.1H38.815ZM13.5,55.243V71.2H9.821V55.243A15.965,15.965,0,0,1,25.04,39.322L29.932,49.1H19.642A6.145,6.145,0,0,0,13.5,55.243ZM57.7,71.2H15.959V55.243a3.687,3.687,0,0,1,3.683-3.683H54.015A3.687,3.687,0,0,1,57.7,55.243Zm6.138,0H60.153V55.243A6.145,6.145,0,0,0,54.015,49.1H43.725l4.892-9.783A15.965,15.965,0,0,1,63.836,55.243Z"/>
    </g>
  </g>
  <g id="Group_53" data-name="Group 53" transform="translate(52.788 60.153)">
    <g id="Group_52" data-name="Group 52">
      <rect id="Rectangle_1485" data-name="Rectangle 1485" width="2.455" height="8.593"/>
    </g>
  </g>
  <g id="Group_55" data-name="Group 55" transform="translate(52.788 55.243)">
    <g id="Group_54" data-name="Group 54">
      <rect id="Rectangle_1486" data-name="Rectangle 1486" width="2.455" height="2.455"/>
    </g>
  </g>
  <g id="Group_57" data-name="Group 57" transform="translate(63.836 11.049)">
    <g id="Group_56" data-name="Group 56">
      <rect id="Rectangle_1487" data-name="Rectangle 1487" width="2.455" height="2.455"/>
    </g>
  </g>
  <g id="Group_59" data-name="Group 59" transform="translate(63.836 15.959)">
    <g id="Group_58" data-name="Group 58">
      <rect id="Rectangle_1488" data-name="Rectangle 1488" width="2.455" height="2.455"/>
    </g>
  </g>
  <g id="Group_61" data-name="Group 61" transform="translate(63.836 20.87)">
    <g id="Group_60" data-name="Group 60">
      <rect id="Rectangle_1489" data-name="Rectangle 1489" width="2.455" height="2.455"/>
    </g>
  </g>
  <g id="Group_63" data-name="Group 63" transform="translate(7.366 25.78)">
    <g id="Group_62" data-name="Group 62">
      <rect id="Rectangle_1490" data-name="Rectangle 1490" width="2.455" height="2.455"/>
    </g>
  </g>
  <g id="Group_65" data-name="Group 65" transform="translate(7.366 30.691)">
    <g id="Group_64" data-name="Group 64">
      <rect id="Rectangle_1491" data-name="Rectangle 1491" width="2.455" height="2.455"/>
    </g>
  </g>
  <g id="Group_67" data-name="Group 67" transform="translate(7.366 35.601)">
    <g id="Group_66" data-name="Group 66">
      <rect id="Rectangle_1492" data-name="Rectangle 1492" width="2.455" height="2.455"/>
    </g>
  </g>
</svg>
